<svg id="visual" viewBox="0 0 960 540" width="960" height="540" xmlns="http://www.w3.org/2000/svg" xmlns:xlink="http://www.w3.org/1999/xlink" version="1.1"><rect x="0" y="0" width="960" height="540" fill="#32544c"></rect><path d="M0 158L20 156.7C40 155.3 80 152.7 120 144C160 135.3 200 120.7 240 116.2C280 111.7 320 117.3 360 140C400 162.7 440 202.3 480 196C520 189.7 560 137.3 600 125.5C640 113.7 680 142.3 720 151.8C760 161.3 800 151.7 840 159.2C880 166.7 920 191.3 940 203.7L960 216L960 541L940 541C920 541 880 541 840 541C800 541 760 541 720 541C680 541 640 541 600 541C560 541 520 541 480 541C440 541 400 541 360 541C320 541 280 541 240 541C200 541 160 541 120 541C80 541 40 541 20 541L0 541Z" fill="#3a6058"></path><path d="M0 232L20 227.5C40 223 80 214 120 215.3C160 216.7 200 228.3 240 234.7C280 241 320 242 360 235.3C400 228.7 440 214.3 480 221.5C520 228.7 560 257.3 600 250C640 242.7 680 199.3 720 198.3C760 197.3 800 238.7 840 238.3C880 238 920 196 940 175L960 154L960 541L940 541C920 541 880 541 840 541C800 541 760 541 720 541C680 541 640 541 600 541C560 541 520 541 480 541C440 541 400 541 360 541C320 541 280 541 240 541C200 541 160 541 120 541C80 541 40 541 20 541L0 541Z" fill="#436d64"></path><path d="M0 313L20 315C40 317 80 321 120 305.5C160 290 200 255 240 238C280 221 320 222 360 226.5C400 231 440 239 480 236.3C520 233.7 560 220.3 600 216.2C640 212 680 217 720 234.3C760 251.7 800 281.3 840 286C880 290.7 920 270.3 940 260.2L960 250L960 541L940 541C920 541 880 541 840 541C800 541 760 541 720 541C680 541 640 541 600 541C560 541 520 541 480 541C440 541 400 541 360 541C320 541 280 541 240 541C200 541 160 541 120 541C80 541 40 541 20 541L0 541Z" fill="#4d7a71"></path><path d="M0 307L20 305.5C40 304 80 301 120 295.7C160 290.3 200 282.7 240 290.2C280 297.7 320 320.3 360 329.5C400 338.7 440 334.3 480 326.5C520 318.7 560 307.3 600 304.7C640 302 680 308 720 318.7C760 329.3 800 344.7 840 341.3C880 338 920 316 940 305L960 294L960 541L940 541C920 541 880 541 840 541C800 541 760 541 720 541C680 541 640 541 600 541C560 541 520 541 480 541C440 541 400 541 360 541C320 541 280 541 240 541C200 541 160 541 120 541C80 541 40 541 20 541L0 541Z" fill="#57887e"></path><path d="M0 321L20 331.5C40 342 80 363 120 370.5C160 378 200 372 240 361.8C280 351.7 320 337.3 360 336.5C400 335.7 440 348.3 480 358.3C520 368.3 560 375.7 600 381.3C640 387 680 391 720 395.7C760 400.3 800 405.7 840 397.7C880 389.7 920 368.3 940 357.7L960 347L960 541L940 541C920 541 880 541 840 541C800 541 760 541 720 541C680 541 640 541 600 541C560 541 520 541 480 541C440 541 400 541 360 541C320 541 280 541 240 541C200 541 160 541 120 541C80 541 40 541 20 541L0 541Z" fill="#61968b"></path><path d="M0 427L20 421.5C40 416 80 405 120 408.2C160 411.3 200 428.7 240 439.5C280 450.3 320 454.7 360 449.7C400 444.7 440 430.3 480 423.5C520 416.7 560 417.3 600 413C640 408.7 680 399.3 720 406.5C760 413.7 800 437.3 840 437.3C880 437.3 920 413.7 940 401.8L960 390L960 541L940 541C920 541 880 541 840 541C800 541 760 541 720 541C680 541 640 541 600 541C560 541 520 541 480 541C440 541 400 541 360 541C320 541 280 541 240 541C200 541 160 541 120 541C80 541 40 541 20 541L0 541Z" fill="#6ba498"></path><path d="M0 462L20 461.3C40 460.7 80 459.3 120 459.7C160 460 200 462 240 462C280 462 320 460 360 466.5C400 473 440 488 480 488.2C520 488.3 560 473.7 600 465.8C640 458 680 457 720 455.7C760 454.3 800 452.7 840 454.2C880 455.7 920 460.3 940 462.7L960 465L960 541L940 541C920 541 880 541 840 541C800 541 760 541 720 541C680 541 640 541 600 541C560 541 520 541 480 541C440 541 400 541 360 541C320 541 280 541 240 541C200 541 160 541 120 541C80 541 40 541 20 541L0 541Z" fill="#75b3a6"></path></svg>