<svg id="visual" viewBox="0 0 960 540" width="960" height="540" xmlns="http://www.w3.org/2000/svg" xmlns:xlink="http://www.w3.org/1999/xlink" version="1.1"><rect x="0" y="0" width="960" height="540" fill="#1d447e"></rect><path d="M0 51L32 59.2C64 67.3 128 83.7 192 85.3C256 87 320 74 384 91.3C448 108.7 512 156.3 576 178C640 199.7 704 195.3 768 192.7C832 190 896 189 928 188.5L960 188L960 541L928 541C896 541 832 541 768 541C704 541 640 541 576 541C512 541 448 541 384 541C320 541 256 541 192 541C128 541 64 541 32 541L0 541Z" fill="#1d447e"></path><path d="M0 300L32 267.3C64 234.7 128 169.3 192 169.7C256 170 320 236 384 252.3C448 268.7 512 235.3 576 232.2C640 229 704 256 768 249.3C832 242.7 896 202.3 928 182.2L960 162L960 541L928 541C896 541 832 541 768 541C704 541 640 541 576 541C512 541 448 541 384 541C320 541 256 541 192 541C128 541 64 541 32 541L0 541Z" fill="#254d8b"></path><path d="M0 246L32 238.2C64 230.3 128 214.7 192 208.3C256 202 320 205 384 193.8C448 182.7 512 157.3 576 162C640 166.7 704 201.3 768 231.8C832 262.3 896 288.7 928 301.8L960 315L960 541L928 541C896 541 832 541 768 541C704 541 640 541 576 541C512 541 448 541 384 541C320 541 256 541 192 541C128 541 64 541 32 541L0 541Z" fill="#2c5799"></path><path d="M0 183L32 182.5C64 182 128 181 192 199.8C256 218.7 320 257.3 384 285.7C448 314 512 332 576 343.7C640 355.3 704 360.7 768 337.3C832 314 896 262 928 236L960 210L960 541L928 541C896 541 832 541 768 541C704 541 640 541 576 541C512 541 448 541 384 541C320 541 256 541 192 541C128 541 64 541 32 541L0 541Z" fill="#3461a6"></path><path d="M0 308L32 312C64 316 128 324 192 323.7C256 323.3 320 314.7 384 308.5C448 302.3 512 298.7 576 296.5C640 294.3 704 293.7 768 302.3C832 311 896 329 928 338L960 347L960 541L928 541C896 541 832 541 768 541C704 541 640 541 576 541C512 541 448 541 384 541C320 541 256 541 192 541C128 541 64 541 32 541L0 541Z" fill="#3b6bb4"></path><path d="M0 350L32 360.5C64 371 128 392 192 380.2C256 368.3 320 323.7 384 320C448 316.3 512 353.7 576 352.2C640 350.7 704 310.3 768 305.8C832 301.3 896 332.7 928 348.3L960 364L960 541L928 541C896 541 832 541 768 541C704 541 640 541 576 541C512 541 448 541 384 541C320 541 256 541 192 541C128 541 64 541 32 541L0 541Z" fill="#4375c2"></path><path d="M0 421L32 408C64 395 128 369 192 364.7C256 360.3 320 377.7 384 389.5C448 401.3 512 407.7 576 394.3C640 381 704 348 768 332.2C832 316.3 896 317.7 928 318.3L960 319L960 541L928 541C896 541 832 541 768 541C704 541 640 541 576 541C512 541 448 541 384 541C320 541 256 541 192 541C128 541 64 541 32 541L0 541Z" fill="#4a7fd1"></path><path d="M0 453L32 450.3C64 447.7 128 442.3 192 430C256 417.7 320 398.3 384 391.5C448 384.7 512 390.3 576 403.3C640 416.3 704 436.7 768 439.7C832 442.7 896 428.3 928 421.2L960 414L960 541L928 541C896 541 832 541 768 541C704 541 640 541 576 541C512 541 448 541 384 541C320 541 256 541 192 541C128 541 64 541 32 541L0 541Z" fill="#518adf"></path><path d="M0 462L32 461.2C64 460.3 128 458.7 192 456.5C256 454.3 320 451.7 384 451.3C448 451 512 453 576 452.3C640 451.7 704 448.3 768 449.2C832 450 896 455 928 457.5L960 460L960 541L928 541C896 541 832 541 768 541C704 541 640 541 576 541C512 541 448 541 384 541C320 541 256 541 192 541C128 541 64 541 32 541L0 541Z" fill="#5994ee"></path><path d="M0 470L32 475.7C64 481.3 128 492.7 192 500C256 507.3 320 510.7 384 503.7C448 496.7 512 479.3 576 478.5C640 477.7 704 493.3 768 497.3C832 501.3 896 493.7 928 489.8L960 486L960 541L928 541C896 541 832 541 768 541C704 541 640 541 576 541C512 541 448 541 384 541C320 541 256 541 192 541C128 541 64 541 32 541L0 541Z" fill="#609ffd"></path></svg>