<svg id="visual" viewBox="0 0 960 540" width="960" height="540" xmlns="http://www.w3.org/2000/svg" xmlns:xlink="http://www.w3.org/1999/xlink" version="1.1"><rect x="0" y="0" width="960" height="540" fill="#3d2d21"></rect><path d="M0 111L17.8 105.5C35.7 100 71.3 89 106.8 86.5C142.3 84 177.7 90 213.2 107.8C248.7 125.7 284.3 155.3 320 171.5C355.7 187.7 391.3 190.3 426.8 171.5C462.3 152.7 497.7 112.3 533.2 98.8C568.7 85.3 604.3 98.7 640 116.3C675.7 134 711.3 156 746.8 158C782.3 160 817.7 142 853.2 145C888.7 148 924.3 172 942.2 184L960 196L960 541L942.2 541C924.3 541 888.7 541 853.2 541C817.7 541 782.3 541 746.8 541C711.3 541 675.7 541 640 541C604.3 541 568.7 541 533.2 541C497.7 541 462.3 541 426.8 541C391.3 541 355.7 541 320 541C284.3 541 248.7 541 213.2 541C177.7 541 142.3 541 106.8 541C71.3 541 35.7 541 17.8 541L0 541Z" fill="#483426"></path><path d="M0 151L17.8 165.8C35.7 180.7 71.3 210.3 106.8 217.8C142.3 225.3 177.7 210.7 213.2 207.5C248.7 204.3 284.3 212.7 320 218.2C355.7 223.7 391.3 226.3 426.8 224.2C462.3 222 497.7 215 533.2 212C568.7 209 604.3 210 640 205.2C675.7 200.3 711.3 189.7 746.8 177.2C782.3 164.7 817.7 150.3 853.2 156.8C888.7 163.3 924.3 190.7 942.2 204.3L960 218L960 541L942.2 541C924.3 541 888.7 541 853.2 541C817.7 541 782.3 541 746.8 541C711.3 541 675.7 541 640 541C604.3 541 568.7 541 533.2 541C497.7 541 462.3 541 426.8 541C391.3 541 355.7 541 320 541C284.3 541 248.7 541 213.2 541C177.7 541 142.3 541 106.8 541C71.3 541 35.7 541 17.8 541L0 541Z" fill="#513b2b"></path><path d="M0 264L17.8 261.3C35.7 258.7 71.3 253.3 106.8 241.3C142.3 229.3 177.7 210.7 213.2 201.2C248.7 191.7 284.3 191.3 320 194.5C355.7 197.7 391.3 204.3 426.8 214.2C462.3 224 497.7 237 533.2 232C568.7 227 604.3 204 640 200.3C675.7 196.7 711.3 212.3 746.8 216.7C782.3 221 817.7 214 853.2 207.7C888.7 201.3 924.3 195.7 942.2 192.8L960 190L960 541L942.2 541C924.3 541 888.7 541 853.2 541C817.7 541 782.3 541 746.8 541C711.3 541 675.7 541 640 541C604.3 541 568.7 541 533.2 541C497.7 541 462.3 541 426.8 541C391.3 541 355.7 541 320 541C284.3 541 248.7 541 213.2 541C177.7 541 142.3 541 106.8 541C71.3 541 35.7 541 17.8 541L0 541Z" fill="#594231"></path><path d="M0 234L17.8 248C35.7 262 71.3 290 106.8 292.3C142.3 294.7 177.7 271.3 213.2 268.7C248.7 266 284.3 284 320 292.2C355.7 300.3 391.3 298.7 426.8 299.2C462.3 299.7 497.7 302.3 533.2 290.8C568.7 279.3 604.3 253.7 640 252.5C675.7 251.3 711.3 274.7 746.8 288.8C782.3 303 817.7 308 853.2 310.7C888.7 313.3 924.3 313.7 942.2 313.8L960 314L960 541L942.2 541C924.3 541 888.7 541 853.2 541C817.7 541 782.3 541 746.8 541C711.3 541 675.7 541 640 541C604.3 541 568.7 541 533.2 541C497.7 541 462.3 541 426.8 541C391.3 541 355.7 541 320 541C284.3 541 248.7 541 213.2 541C177.7 541 142.3 541 106.8 541C71.3 541 35.7 541 17.8 541L0 541Z" fill="#624936"></path><path d="M0 266L17.8 278.3C35.7 290.7 71.3 315.3 106.8 319.7C142.3 324 177.7 308 213.2 309C248.7 310 284.3 328 320 332.8C355.7 337.7 391.3 329.3 426.8 323C462.3 316.7 497.7 312.3 533.2 310.7C568.7 309 604.3 310 640 311C675.7 312 711.3 313 746.8 315.3C782.3 317.7 817.7 321.3 853.2 322.8C888.7 324.3 924.3 323.7 942.2 323.3L960 323L960 541L942.2 541C924.3 541 888.7 541 853.2 541C817.7 541 782.3 541 746.8 541C711.3 541 675.7 541 640 541C604.3 541 568.7 541 533.2 541C497.7 541 462.3 541 426.8 541C391.3 541 355.7 541 320 541C284.3 541 248.7 541 213.2 541C177.7 541 142.3 541 106.8 541C71.3 541 35.7 541 17.8 541L0 541Z" fill="#6b503c"></path><path d="M0 342L17.8 344C35.7 346 71.3 350 106.8 348.2C142.3 346.3 177.7 338.7 213.2 333.2C248.7 327.7 284.3 324.3 320 333.8C355.7 343.3 391.3 365.7 426.8 367.5C462.3 369.3 497.7 350.7 533.2 339C568.7 327.3 604.3 322.7 640 319.7C675.7 316.7 711.3 315.3 746.8 320.7C782.3 326 817.7 338 853.2 344.2C888.7 350.3 924.3 350.7 942.2 350.8L960 351L960 541L942.2 541C924.3 541 888.7 541 853.2 541C817.7 541 782.3 541 746.8 541C711.3 541 675.7 541 640 541C604.3 541 568.7 541 533.2 541C497.7 541 462.3 541 426.8 541C391.3 541 355.7 541 320 541C284.3 541 248.7 541 213.2 541C177.7 541 142.3 541 106.8 541C71.3 541 35.7 541 17.8 541L0 541Z" fill="#745742"></path><path d="M0 408L17.8 406.8C35.7 405.7 71.3 403.3 106.8 403C142.3 402.7 177.7 404.3 213.2 406.3C248.7 408.3 284.3 410.7 320 404.7C355.7 398.7 391.3 384.3 426.8 380C462.3 375.7 497.7 381.3 533.2 389.5C568.7 397.7 604.3 408.3 640 411.2C675.7 414 711.3 409 746.8 400.3C782.3 391.7 817.7 379.3 853.2 376.3C888.7 373.3 924.3 379.7 942.2 382.8L960 386L960 541L942.2 541C924.3 541 888.7 541 853.2 541C817.7 541 782.3 541 746.8 541C711.3 541 675.7 541 640 541C604.3 541 568.7 541 533.2 541C497.7 541 462.3 541 426.8 541C391.3 541 355.7 541 320 541C284.3 541 248.7 541 213.2 541C177.7 541 142.3 541 106.8 541C71.3 541 35.7 541 17.8 541L0 541Z" fill="#7e5f47"></path><path d="M0 468L17.8 467.7C35.7 467.3 71.3 466.7 106.8 466.3C142.3 466 177.7 466 213.2 462.8C248.7 459.7 284.3 453.3 320 446.2C355.7 439 391.3 431 426.8 430C462.3 429 497.7 435 533.2 443.3C568.7 451.7 604.3 462.3 640 461.2C675.7 460 711.3 447 746.8 441.7C782.3 436.3 817.7 438.7 853.2 434.8C888.7 431 924.3 421 942.2 416L960 411L960 541L942.2 541C924.3 541 888.7 541 853.2 541C817.7 541 782.3 541 746.8 541C711.3 541 675.7 541 640 541C604.3 541 568.7 541 533.2 541C497.7 541 462.3 541 426.8 541C391.3 541 355.7 541 320 541C284.3 541 248.7 541 213.2 541C177.7 541 142.3 541 106.8 541C71.3 541 35.7 541 17.8 541L0 541Z" fill="#87664d"></path><path d="M0 458L17.8 466.3C35.7 474.7 71.3 491.3 106.8 498.5C142.3 505.7 177.7 503.3 213.2 501.2C248.7 499 284.3 497 320 490C355.7 483 391.3 471 426.8 471.2C462.3 471.3 497.7 483.7 533.2 485.3C568.7 487 604.3 478 640 475.5C675.7 473 711.3 477 746.8 478.2C782.3 479.3 817.7 477.7 853.2 477.2C888.7 476.7 924.3 477.3 942.2 477.7L960 478L960 541L942.2 541C924.3 541 888.7 541 853.2 541C817.7 541 782.3 541 746.8 541C711.3 541 675.7 541 640 541C604.3 541 568.7 541 533.2 541C497.7 541 462.3 541 426.8 541C391.3 541 355.7 541 320 541C284.3 541 248.7 541 213.2 541C177.7 541 142.3 541 106.8 541C71.3 541 35.7 541 17.8 541L0 541Z" fill="#916e53"></path></svg>